HIERARCHY
ROOT Hips
{
	OFFSET 0.000000 0.000000 0.000000
	CHANNELS 6 Xposition Yposition Zposition Zrotation Yrotation Xrotation 
	JOINT LHipJoint
	{
		OFFSET 0.000000 0.000000 0.000000
		CHANNELS 3 Zrotation Yrotation Xrotation
		JOINT LeftUpLeg
		{
			OFFSET 8.178360 -10.767780 5.035740
			CHANNELS 3 Zrotation Yrotation Xrotation
			JOINT LeftLeg
			{
				OFFSET 14.688660 -40.356780 0.000000
				CHANNELS 3 Zrotation Yrotation Xrotation
				JOINT LeftFoot
				{
					OFFSET 15.373200 -42.237540 0.000000
					CHANNELS 3 Zrotation Yrotation Xrotation
					JOINT LeftToeBase
					{
						OFFSET 0.945840 -2.598660 13.935300
						CHANNELS 3 Zrotation Yrotation Xrotation
						End Site
						{
							OFFSET 0.000000 0.000000 0.000000
						}
					}
				}
			}
		}
	}
	JOINT RHipJoint
	{
		OFFSET 0.000000 0.000000 0.000000
		CHANNELS 3 Zrotation Yrotation Xrotation
		JOINT RightUpLeg
		{
			OFFSET -7.833120 -10.767780 5.035740
			CHANNELS 3 Zrotation Yrotation Xrotation
			JOINT RightLeg
			{
				OFFSET -15.255180 -41.913300 0.000000
				CHANNELS 3 Zrotation Yrotation Xrotation
				JOINT RightFoot
				{
					OFFSET -15.409560 -42.337380 0.000000
					CHANNELS 3 Zrotation Yrotation Xrotation
					JOINT RightToeBase
					{
						OFFSET -0.988380 -2.715540 14.178900
						CHANNELS 3 Zrotation Yrotation Xrotation
						End Site
						{
							OFFSET 0.000000 0.000000 0.000000
						}
					}
				}
			}
		}
	}
	JOINT LowerBack
	{
		OFFSET 0.000000 0.000000 0.000000
		CHANNELS 3 Zrotation Yrotation Xrotation
		JOINT Spine
		{
			OFFSET 0.169620 12.213540 -1.160280
			CHANNELS 3 Zrotation Yrotation Xrotation
			JOINT Spine1
			{
				OFFSET 0.340320 12.293100 -0.256500
				CHANNELS 3 Zrotation Yrotation Xrotation
				JOINT Neck
				{
					OFFSET 0.000000 0.000000 0.000000
					CHANNELS 3 Zrotation Yrotation Xrotation
					JOINT Neck1
					{
						OFFSET -0.325020 10.477440 1.032120
						CHANNELS 3 Zrotation Yrotation Xrotation
						JOINT Head
						{
							OFFSET 0.624420 10.568160 -0.743820
							CHANNELS 3 Zrotation Yrotation Xrotation
							End Site
							{
								OFFSET 0.000000 0.000000 0.000000
							}
						}
					}
				}
				JOINT LeftShoulder
				{
					OFFSET 0.000000 0.000000 0.000000
					CHANNELS 3 Zrotation Yrotation Xrotation
					JOINT LeftArm
					{
						OFFSET 20.174460 7.205340 -1.867260
						CHANNELS 3 Zrotation Yrotation Xrotation
						JOINT LeftForeArm
						{
							OFFSET 29.898000 -0.000000 -0.000000
							CHANNELS 3 Zrotation Yrotation Xrotation
							JOINT LeftHand
							{
								OFFSET 20.901360 -0.000000 -0.000000
								CHANNELS 3 Zrotation Yrotation Xrotation
								JOINT LeftFingerBase
								{
									OFFSET 0.000000 0.000000 0.000000
									CHANNELS 3 Zrotation Yrotation Xrotation
									JOINT LeftHandIndex1
									{
										OFFSET 4.291560 -0.000000 -0.000000
										CHANNELS 3 Zrotation Yrotation Xrotation
										End Site
										{
											OFFSET 0.000000 0.000000 0.000000
										}
									}
								}
								JOINT LThumb
								{
									OFFSET 0.000000 0.000000 0.000000
									CHANNELS 3 Zrotation Yrotation Xrotation
									End Site
									{
										OFFSET 0.000000 0.000000 0.000000
									}
								}
							}
						}
					}
				}
				JOINT RightShoulder
				{
					OFFSET 0.000000 0.000000 0.000000
					CHANNELS 3 Zrotation Yrotation Xrotation
					JOINT RightArm
					{
						OFFSET -18.819600 8.244300 -2.427900
						CHANNELS 3 Zrotation Yrotation Xrotation
						JOINT RightForeArm
						{
							OFFSET -31.451400 -0.000000 -0.000000
							CHANNELS 3 Zrotation Yrotation Xrotation
							JOINT RightHand
							{
								OFFSET -20.665020 -0.000000 -0.000000
								CHANNELS 3 Zrotation Yrotation Xrotation
								JOINT RightFingerBase
								{
									OFFSET 0.000000 0.000000 0.000000
									CHANNELS 3 Zrotation Yrotation Xrotation
									JOINT RightHandIndex1
									{
										OFFSET -3.735180 -0.000000 -0.000000
										CHANNELS 3 Zrotation Yrotation Xrotation
										End Site
										{
											OFFSET 0.000000 0.000000 0.000000
										}
									}
								}
								JOINT RThumb
								{
									OFFSET 0.000000 0.000000 0.000000
									CHANNELS 3 Zrotation Yrotation Xrotation
									End Site
									{
										OFFSET 0.000000 0.000000 0.000000
									}
								}
							}
						}
					}
				}
			}
		}
	}
}
MOTION
Frames:	10
Frame Time:	0.0333333
-55.997448 104.465214 96.807258 175.214661 5.214060 177.799868 -1.809390 2.268613 2.962211 -13.061312 -6.065483 -1.925605 -0.220534 5.536217 17.400230 0.989583 -10.233900 -3.906187 1.033000 -6.464600 -18.138700 -0.310798 -1.749452 1.005763 -1.202223 8.934600 -2.165997 -1.924593 -9.119859 26.356074 1.392998 -9.274958 -4.052169 -0.185100 2.770600 -7.640800 1.087841 1.762387 9.867175 1.578223 2.711007 2.453020 -1.040305 1.425108 -4.877430 -10.441157 4.885571 -13.566828 3.531984 4.018941 33.708852 3.975400 -1.744800 18.118000 -6.154569 -1.288295 -1.330820 -81.497533 3.439466 4.652827 15.734070 -22.460200 -3.445998 -1.327389 -1.917114 5.102458 22.615423 21.143640 9.824200 -7.125000 0.000000 0.000000 -5.708100 54.922800 -1.394400 5.022090 0.708239 -1.121830 76.644502 -5.367356 0.882205 -21.148947 30.305972 -5.804687 0.371828 -0.162257 2.983376 -18.279111 10.303774 -3.498600 7.125000 0.000000 0.000000 5.932300 -19.016000 3.695400 
-58.109412 104.858376 96.937320 175.171330 5.934732 178.067262 -1.865093 2.197756 2.936010 -14.165973 -5.196440 -2.492002 -0.228852 5.437740 17.181770 0.980559 -11.099625 -3.401674 0.762600 -5.576700 -15.560900 -0.297030 -1.712595 0.954648 -1.146833 9.265901 -4.766669 -2.455438 -10.104843 29.381899 2.036199 -12.584262 -3.852263 -0.078900 -1.812300 4.987300 0.717688 1.917633 10.002016 1.565912 2.862494 2.424732 -0.813300 1.503783 -4.988865 -10.550629 4.902470 -13.497614 3.393496 4.070082 33.662690 3.937300 -1.767200 18.064800 -6.133823 -1.337897 -1.317595 -81.006896 2.810845 5.265346 15.975979 -22.792030 -3.567422 -1.315389 -1.903279 4.351198 22.900954 20.793996 9.810000 -7.125000 0.000000 0.000000 -5.261700 54.584400 -1.241500 5.033568 0.730531 -1.125464 77.377324 -5.078301 1.299925 -20.727557 29.789858 -5.585183 0.365514 -0.189392 3.872785 -18.248815 11.027142 -3.737600 7.125000 0.000000 0.000000 5.961500 -18.240100 3.816800 
-59.805546 105.149514 97.119876 175.357810 5.998350 178.277016 -1.920127 2.113474 2.874794 -15.006293 -5.367757 -2.723191 -0.245335 5.427055 17.180924 0.943748 -10.612180 -3.509851 0.731900 -5.465900 -15.242200 -0.283200 -1.680381 0.948912 -0.153447 8.638908 -7.424936 -3.137032 -11.198422 33.089411 1.643419 -10.693256 -5.736109 -0.073500 -1.749500 4.813800 0.286787 1.829385 10.053618 1.629776 2.679895 2.549344 -0.376002 1.461208 -4.825434 -8.960536 -0.216494 -13.840199 0.692216 7.039690 33.653773 3.958500 2.602100 18.260200 -6.079129 -1.612082 -1.257323 -80.469268 2.450003 6.128437 16.671336 -23.770399 -3.924498 -1.240033 -1.877955 2.529922 23.064770 19.726879 9.422700 -7.125000 0.000000 0.000000 -4.741300 53.425100 -0.984200 5.042380 0.504015 -1.178729 78.196051 -4.485383 2.683470 -20.422878 29.403294 -5.439127 0.333467 -0.191632 5.119255 -17.116443 10.856675 -3.437000 7.125000 0.000000 0.000000 6.776900 -18.503100 4.306100 
-61.286904 105.417984 97.354938 175.686237 6.198965 178.350764 -1.961581 2.061102 2.813356 -15.727289 -6.071721 -2.713664 -0.263346 5.492970 17.365865 0.852512 -8.980583 -3.859122 0.897000 -6.036400 -16.890200 -0.269114 -1.624764 0.944215 1.633947 8.219510 -9.901597 -3.931665 -12.245989 36.946750 0.635258 -5.670421 -7.108280 -0.002000 -0.289000 0.794100 0.028226 1.735234 10.247327 1.688528 2.539967 2.686741 -0.013101 1.402377 -4.700784 -8.823675 -0.064144 -14.118990 0.421737 7.241813 33.642861 3.839500 2.632300 18.323000 -5.990167 -1.658437 -1.255596 -79.590032 2.328551 8.011850 17.589840 -25.032415 -4.426136 -1.049826 -1.900248 0.691355 21.667197 19.262380 8.591900 -7.125000 0.000000 0.000000 -6.155100 52.645200 -1.161600 5.043529 0.485245 -1.188011 78.867734 -4.129787 4.214390 -20.356683 29.341131 -5.429822 0.281938 -0.211121 6.542759 -15.339913 11.519535 -3.246500 7.125000 0.000000 0.000000 8.052300 -17.927100 5.234900 
-62.454450 105.569520 97.583436 176.084087 6.130871 178.200570 -1.979443 2.029872 2.772258 -16.094097 -6.617113 -2.722797 -0.221678 5.655582 17.833677 0.801465 -8.302884 -3.912883 0.767000 -5.592400 -15.606200 -0.259109 -1.586427 0.932251 4.268806 7.610368 -11.765656 -4.760032 -13.161248 40.559292 -0.276354 -0.909812 -8.455439 -0.007600 0.563700 -1.549100 -0.289829 1.653551 10.812538 1.777244 2.416210 2.766147 0.410354 1.348770 -4.882580 -9.027412 -0.115302 -14.159664 0.527018 7.158136 33.599823 3.915500 2.563900 18.308700 -5.912380 -1.676489 -1.256703 -78.688807 2.213361 9.577157 18.359327 -26.074222 -4.859719 -1.001759 -1.894678 0.079416 21.761403 19.148298 8.571100 -7.125000 0.000000 0.000000 -6.047500 52.524500 -1.123300 5.027329 0.506106 -1.194395 79.566799 -4.306878 6.302998 -20.696733 29.744183 -5.614167 0.287808 -0.247694 7.380011 -15.984340 12.832989 -3.772200 7.125000 0.000000 0.000000 7.595600 -16.501100 5.171400 
-63.434064 105.687048 97.701564 176.441982 6.498644 178.208323 -1.993525 1.990437 2.727530 -16.408985 -6.896380 -2.981293 -0.148771 5.899657 18.529725 0.755784 -7.479369 -4.236617 0.687500 -5.301000 -14.769000 -0.248587 -1.563194 0.915018 7.469127 6.688466 -13.568163 -5.495350 -13.873569 43.548686 -0.786909 1.719668 -9.783509 -0.050700 1.452900 -3.995800 -0.690380 1.673147 10.828541 1.808599 2.398581 2.879764 0.765893 1.345454 -4.723815 -9.000776 -0.094313 -13.995096 0.568294 7.029198 33.391896 3.889500 2.516900 18.123900 -5.850027 -1.688418 -1.244221 -77.938707 2.053903 10.006815 18.994480 -26.924681 -5.226886 -0.969719 -1.833040 -0.241168 21.872181 18.222860 8.226700 -7.125000 0.000000 0.000000 -5.662000 51.503700 -0.909400 5.015378 0.514435 -1.197556 80.267508 -4.427530 7.977126 -21.175326 30.323007 -5.883849 0.272460 -0.255088 7.756029 -15.474288 13.324699 -3.781900 7.125000 0.000000 0.000000 7.957900 -16.030600 5.504900 
-64.226352 105.671538 97.800600 176.818499 6.644887 178.373921 -2.000663 1.930812 2.661149 -16.511514 -7.067550 -3.806995 0.006704 6.326762 19.745494 0.756095 -7.204862 -4.573751 0.558800 -4.788400 -13.306000 -0.229070 -1.555961 0.902225 11.209930 4.109016 -15.449231 -6.012848 -14.334730 45.623439 -0.830830 1.325790 -11.450616 -0.064900 1.643300 -4.520700 -0.947666 1.646456 10.703895 1.800208 2.312897 2.818834 0.982011 1.304873 -4.732801 -9.133460 -0.274250 -13.623422 0.791988 6.739270 33.453534 3.971400 2.427900 18.063700 -5.795156 -1.667340 -1.245594 -77.329020 2.252610 10.298847 19.609015 -27.738382 -5.585396 -0.917664 -1.865728 -1.202356 21.839674 18.501110 8.320600 -7.125000 0.000000 0.000000 -5.801800 51.807000 -0.975200 4.984055 0.535349 -1.201409 80.837415 -4.942063 9.381641 -21.778357 31.016215 -6.217094 0.281723 -0.228755 7.290496 -15.619713 12.574576 -3.605000 7.125000 0.000000 0.000000 7.852300 -16.812800 5.295800 
-64.994772 105.604122 97.816704 176.741541 6.355899 178.638811 -2.008707 1.853458 2.585780 -16.976626 -6.853387 -4.940933 0.195454 6.762155 21.005990 0.833278 -7.911026 -4.999060 0.515700 -4.602900 -12.779400 -0.189780 -1.563225 0.884640 14.583846 -0.833728 -17.653752 -6.241435 -14.536956 46.586876 -0.559754 -0.819968 -12.847135 -0.146800 2.468700 -6.803000 -1.200019 1.465574 10.371900 1.638288 2.020295 2.750336 0.961089 1.164282 -4.591959 -9.316508 -0.437811 -13.587925 1.081874 6.473267 33.527005 4.109500 2.327400 18.106000 -5.778933 -1.644011 -1.243615 -76.785807 2.126844 10.566368 19.849683 -28.058888 -5.729209 -0.864330 -1.929272 -2.104376 21.500810 19.289910 8.493200 -7.125000 0.000000 0.000000 -6.422800 52.620400 -1.208500 4.957318 0.569182 -1.199302 81.343899 -5.127166 9.754665 -22.127636 31.427678 -6.417504 0.276952 -0.222369 7.391088 -15.421131 12.441069 -3.518400 7.125000 0.000000 0.000000 7.993200 -16.971200 5.364800 
-65.754840 105.311790 97.803582 176.147640 6.749196 178.872474 -2.005519 1.749689 2.500671 -17.951197 -6.013089 -6.389084 0.454087 7.297322 22.587429 0.930723 -8.815640 -5.672195 0.442800 -4.269600 -11.836400 -0.145579 -1.563753 0.878081 17.052891 -4.472870 -19.075803 -6.280242 -14.544811 46.753047 -0.328590 -2.155520 -13.013505 -0.077100 1.790900 -4.928200 -1.560408 1.596667 10.002917 1.251579 2.114421 2.595986 0.545751 1.222100 -4.580833 -9.280909 -0.704927 -13.360132 1.198630 6.012348 33.580402 4.095500 2.180100 18.117200 -5.792224 -1.629782 -1.235292 -76.181862 1.887600 10.845971 19.729251 -27.925052 -5.656343 -0.905663 -1.993529 -2.478510 22.212904 20.360784 9.247900 -7.125000 0.000000 0.000000 -6.005000 53.936900 -1.322900 4.920758 0.610388 -1.199633 81.997137 -5.551312 9.776352 -22.505784 31.854932 -6.630603 0.286915 -0.201069 6.957999 -15.686128 11.754154 -3.384800 7.125000 0.000000 0.000000 7.806200 -17.676300 5.115300 
-66.426012 105.015876 97.681278 175.049878 8.321361 178.794806 -2.004990 1.670596 2.482282 -19.413546 -4.032521 -7.376557 0.609030 7.544470 23.357158 1.020534 -9.588061 -6.485776 0.440000 -4.256300 -11.798900 -0.113970 -1.560054 0.873597 18.159488 -5.365245 -18.494700 -5.970549 -14.209150 45.498683 -0.147113 -2.593642 -11.547711 -0.086500 -1.896500 5.219600 -2.258904 1.934029 9.473622 0.810357 2.476705 2.610166 0.167607 1.418057 -4.274922 -9.634828 -0.815785 -13.452233 1.427292 5.838486 33.552800 4.248500 2.064700 18.127500 -5.816034 -1.590261 -1.237499 -76.056212 1.913468 10.485970 19.705606 -27.910093 -5.638731 -0.935169 -2.002874 -2.055204 22.521597 20.715796 9.534500 -7.125000 0.000000 0.000000 -5.794200 54.386600 -1.339900 4.887981 0.631855 -1.193301 82.265559 -5.717354 10.262120 -22.598801 31.988980 -6.689303 0.283010 -0.256259 6.150082 -15.593565 14.214548 -4.059800 7.125000 0.000000 0.000000 7.881000 -15.102200 5.609700 
